HIERARCHY
ROOT Hips
{
	OFFSET 0.000000 0.000000 0.000000 
	CHANNELS 6 Xposition Yposition Zposition Zrotation Yrotation Xrotation
	JOINT LeftUpLeg
	{
		OFFSET 1.363060 -1.794630 0.839290 
		CHANNELS 3 Zrotation Yrotation Xrotation
		JOINT LeftLeg
		{
			OFFSET 2.448110 -6.726130 0.000000 
			CHANNELS 3 Zrotation Yrotation Xrotation
			JOINT LeftFoot
			{
				OFFSET 2.562200 -7.039590 0.000000 
				CHANNELS 3 Zrotation Yrotation Xrotation
				JOINT LeftToeBase
				{
					OFFSET 0.157640 -0.433110 2.322550 
					CHANNELS 3 Zrotation Yrotation Xrotation
					End Site
					{
						OFFSET 0.000000 0.000000 0.000000 
					}
				}
			}
		}
	}
	JOINT RightUpLeg
	{
		OFFSET -1.305520 -1.794630 0.839290 
		CHANNELS 3 Zrotation Yrotation Xrotation
		JOINT RightLeg
		{
			OFFSET -2.542530 -6.985550 0.000000 
			CHANNELS 3 Zrotation Yrotation Xrotation
			JOINT RightFoot
			{
				OFFSET -2.568260 -7.056230 0.000000 
				CHANNELS 3 Zrotation Yrotation Xrotation
				JOINT RightToeBase
				{
					OFFSET -0.164730 -0.452590 2.363150 
					CHANNELS 3 Zrotation Yrotation Xrotation
					End Site
					{
						OFFSET 0.000000 0.000000 0.000000 
					}
				}
			}
		}
	}
	JOINT Spine
	{
		OFFSET 0.028270 2.035590 -0.193380 
		CHANNELS 3 Zrotation Yrotation Xrotation
		JOINT Spine1
		{
			OFFSET 0.056720 2.048850 -0.042750 
			CHANNELS 3 Zrotation Yrotation Xrotation
			JOINT Neck1
			{
				OFFSET -0.054170 1.746240 0.172020 
				CHANNELS 3 Zrotation Yrotation Xrotation
				JOINT Head
				{
					OFFSET 0.104070 1.761360 -0.123970 
					CHANNELS 3 Zrotation Yrotation Xrotation
					End Site
					{
						OFFSET 0.000000 0.000000 0.000000 
					}
				}
			}
			JOINT LeftArm
			{
				OFFSET 3.362410 1.200890 -0.311210 
				CHANNELS 3 Zrotation Yrotation Xrotation
				JOINT LeftForeArm
				{
					OFFSET 4.983000 -0.000000 -0.000000 
					CHANNELS 3 Zrotation Yrotation Xrotation
					JOINT LeftHand
					{
						OFFSET 3.483560 -0.000000 -0.000000 
						CHANNELS 3 Zrotation Yrotation Xrotation
						JOINT LeftHandIndex1
						{
							OFFSET 0.715260 -0.000000 -0.000000 
							CHANNELS 3 Zrotation Yrotation Xrotation
							End Site
							{
								OFFSET 0.000000 0.000000 0.000000 
							}
						}
					}
				}
			}
			JOINT RightArm
			{
				OFFSET -3.136600 1.374050 -0.404650 
				CHANNELS 3 Zrotation Yrotation Xrotation
				JOINT RightForeArm
				{
					OFFSET -5.241900 -0.000000 -0.000000 
					CHANNELS 3 Zrotation Yrotation Xrotation
					JOINT RightHand
					{
						OFFSET -3.444170 -0.000000 -0.000000 
						CHANNELS 3 Zrotation Yrotation Xrotation
						JOINT RightHandIndex1
						{
							OFFSET -0.622530 -0.000000 -0.000000 
							CHANNELS 3 Zrotation Yrotation Xrotation
							End Site
							{
								OFFSET 0.000000 0.000000 0.000000 
							}
						}
					}
				}
			}
		}
	}
}
MOTION
Frames: 6
Frame Time: 0.041667
-6.045548 18.125894 3.684320 -4.243050 34.650016 8.502340 2.677159 13.021369 -9.370278 2.920881 9.369008 27.506764 -2.448698 22.676081 22.494482 2.947700 -10.610000 -30.975400 16.368755 22.876975 -19.724620 -1.893598 -8.680561 26.253627 -1.073473 22.838437 14.726641 -2.815900 -10.390800 30.251800 -10.424453 -15.431118 -4.471196 6.346990 -7.541072 1.030510 -9.108134 32.241852 4.382544 -1.572600 14.762900 6.338100 166.141939 -37.491365 -174.945487 22.797441 -31.016545 -6.258302 0.544840 0.203162 1.883658 -7.125000 0.000000 0.000000 32.926430 49.376413 -24.142597 -128.785006 54.501745 -90.455370 0.397972 -0.561236 3.710074 7.125000 0.000000 0.000000 
-6.043740 18.130315 3.671057 -4.303233 34.646778 8.490925 2.685528 13.078525 -9.513836 2.936305 9.394753 27.588657 -2.299929 22.329697 22.931366 3.078100 -10.820400 -31.676400 16.376374 22.941595 -19.712626 -1.889605 -8.659155 26.189965 -1.074909 22.839095 14.375734 -2.635900 -10.081000 29.239300 -10.216568 -15.567637 -4.348998 6.420023 -7.626543 1.076766 -8.951265 32.438821 4.484496 -1.393100 14.806500 6.360600 165.635825 -37.777643 -174.561566 22.779885 -30.956792 -6.241103 0.549389 0.207843 2.056364 -7.125000 0.000000 0.000000 32.403106 49.810608 -24.266880 -128.426553 54.611963 -90.167855 0.398716 -0.551761 3.622203 7.125000 0.000000 0.000000 
-6.045247 18.134234 3.657593 -4.394153 34.620627 8.430956 2.741158 13.184091 -9.627952 2.953633 9.418688 27.676916 -2.166722 21.959514 23.258412 3.173100 -10.970100 -32.179100 16.444029 23.012316 -19.652090 -1.876468 -8.627555 26.095624 -1.083813 22.749060 14.260648 -2.538200 -9.907100 28.676300 -10.197834 -15.545977 -4.312213 6.446445 -7.614621 1.014981 -8.942163 32.475511 4.552521 -1.384500 14.820600 6.378600 165.612782 -37.835262 -174.600401 22.759901 -30.929756 -6.228795 0.548135 0.210328 1.895579 -7.125000 0.000000 0.000000 32.248452 49.759210 -24.317551 -128.292327 54.656151 -90.068825 0.402504 -0.545269 3.713526 7.125000 0.000000 0.000000 
-6.048261 18.134334 3.643627 -4.433235 34.615792 8.421985 2.773286 13.376857 -9.799063 2.967761 9.440489 27.767373 -2.042879 21.529032 23.482357 3.218600 -11.040800 -32.417500 16.452854 23.101762 -19.636301 -1.853801 -8.583085 25.976795 -1.103697 22.524236 14.521227 -2.595300 -10.009200 29.006600 -10.281120 -15.469544 -4.303123 6.449923 -7.568802 0.953890 -9.030709 32.401525 4.542573 -1.465200 14.803600 6.377800 165.884300 -37.778761 -174.958314 22.649750 -30.823956 -6.178797 0.550490 0.207669 1.778971 -7.125000 0.000000 0.000000 32.379260 49.560855 -24.335995 -128.364360 54.635918 -90.128977 0.404191 -0.547686 3.104770 7.125000 0.000000 0.000000 
-6.050472 18.132325 3.626947 -4.480977 34.642445 8.424384 2.791191 13.500107 -9.968015 2.980781 9.468296 27.874426 -1.940022 21.123833 23.625955 3.267600 -11.116100 -32.672500 16.440553 23.214974 -19.650648 -1.829771 -8.533700 25.852122 -1.127163 22.257925 14.870671 -2.732000 -10.248100 29.783800 -10.291799 -15.447729 -4.267824 6.457256 -7.557136 0.926410 -9.028260 32.386559 4.562406 -1.470500 14.796900 6.371200 165.929948 -37.728287 -175.157587 22.484538 -30.632036 -6.091859 0.549427 0.210308 1.804820 -7.125000 0.000000 0.000000 32.449685 49.592962 -24.338574 -128.338175 54.646671 -90.102516 0.403283 -0.548806 1.964142 7.125000 0.000000 0.000000 
-6.054692 18.131521 3.606349 -4.601972 34.699136 8.371504 2.849738 13.519729 -10.103396 2.989652 9.492112 27.960712 -1.839791 20.747891 23.791470 3.370200 -11.271500 -33.201300 16.486506 23.367857 -19.659114 -1.814144 -8.496903 25.771469 -1.157935 21.889648 15.212464 -2.888800 -10.512800 30.653700 -10.343036 -15.369636 -4.215237 6.435921 -7.514589 0.850059 -9.040767 32.344806 4.568284 -1.504300 14.787900 6.368300 166.009585 -37.559344 -175.303766 22.375700 -30.502346 -6.026786 0.537177 0.217827 1.833924 -7.125000 0.000000 0.000000 32.591043 49.496121 -24.232603 -128.133729 54.721322 -89.929805 0.402657 -0.542264 1.201265 7.125000 0.000000 0.000000 
